<svg width="604" height="354" xmlns="http://www.w3.org/2000/svg">
 <defs>
  <style type="text/css">
   <![CDATA[

.g0_1{
fill: #231F20;
}
.g1_1{
fill: #62BC54;
}
.g2_1{
fill: #8AC758;
}
.g3_1{
fill: #1EA554;
}
.g4_1{
fill: #0F6F41;
}
.g5_1{
fill: #A6D051;
}
.g6_1{
fill: #A9D04D;
}

]]>
  </style>
 </defs>
 <g>
  <title>background</title>
  <rect fill="none" id="canvas_background" height="356" width="606" y="-1" x="-1"/>
 </g>
 <g>
  <title>Layer 1</title>
  <path id="svg_1" fill="#FFFFFF" d="m-126.199988,-262.100002l0,866l749.999975,0l0,-866l-749.999975,0z"/>
  <path id="svg_2" class="g0_1" d="m348.599988,94.499998c-1.7,-7.6 -9.8,-10.8 -17.1,-10.7c-5.6,0.2 -11.8,2.1 -15.1,6.4c-1.7,2.1 -2.3,4.8 -2,7.7c0.5,8.6 10,9.7 18.9,10.5c11.5,1.4 25.6,4.4 28.9,17.8c0.3,1.8 0.6,3.8 0.6,5.4c0,16.1 -16,25.4 -31,25.4c-12.9,0 -28.5,-7.6 -30.1,-22.5l-0.1,-2.3l12.2,-0.2l0.1,1.8l0,-0.5c0.8,7.8 10.2,11.8 18,11.8c8.9,0 18.7,-5 18.7,-13.6c0,-0.8 -0.1,-1.8 -0.4,-2.8c-1.4,-6.3 -10,-7.4 -18.3,-8.3c-13,-1.3 -28.3,-4.1 -29.6,-21.5l0,0.1c-0.5,-5.6 1,-11.2 4.5,-15.9c5.6,-7.2 15.7,-11.1 25.3,-11.1c12.9,0 26.2,6.7 28.4,22l-11.9,0.5z"/>
  <path id="svg_3" class="g0_1" d="m385.499988,144.299998l38.8,0l0,12l-50.9,0l0,-83.3l50.8,0l0,12l-38.7,0l0,23.5l37.8,0l0,12.2l-37.8,0l0,23.6z"/>
  <path id="svg_4" class="g0_1" d="m446.999988,144.299998l39.3,0l0,12l-51.3,0l0,-83.3l12,0l0,71.3z"/>
  <path id="svg_5" class="g1_1" d="m11.399988,71.999998l60.1,-34.6l0,69.3l-60.1,-34.7l60.1,-34.6l0,69.3l-60.1,-34.7z"/>
  <path id="svg_6" class="g2_1" d="m131.499988,71.999998l-60,-34.6l0,69.3l60,-34.7l-60,-34.6l0,69.3l60,-34.7z"/>
  <path id="svg_7" class="g1_1" d="m191.499988,37.399998l-60,-34.7l0,69.3l60,-34.6l-60,-34.7l0,69.3l60,-34.6z"/>
  <path id="svg_8" class="g3_1" d="m71.499988,37.399998l60,34.6l0,-69.3l-60,34.7l60,34.6l0,-69.3l-60,34.7z"/>
  <path id="svg_9" class="g2_1" d="m71.499988,175.999998l-60.1,-34.7l0,69.3l60.1,-34.6l-60.1,-34.7l0,69.3l60.1,-34.6z"/>
  <path id="svg_10" class="g2_1" d="m131.499988,279.899998l60,34.7l0,-69.3l-60,34.6l60,34.7l0,-69.3l-60,34.6z"/>
  <path id="svg_11" class="g1_1" d="m191.499988,314.599998l-60,-34.7l0,69.3l60,-34.6l-60,-34.7l0,69.3l60,-34.6z"/>
  <path id="svg_12" class="g4_1" d="m71.499988,314.599998l60,34.6l0,-69.3l-60,34.7l60,34.6l0,-69.3l-60,34.7z"/>
  <path id="svg_13" class="g3_1" d="m251.499988,279.899998l-60,-34.6l0,69.3l60,-34.7l-60,-34.6l0,69.3l60,-34.7z"/>
  <path id="svg_14" class="g4_1" d="m191.499988,245.299998l60,34.6l0,-69.3l-60,34.7l60,34.6l0,-69.3l-60,34.7z"/>
  <path id="svg_15" class="g5_1" d="m251.499988,71.999998l-60,-34.6l0,69.3l60,-34.7l-60,-34.6l0,69.3l60,-34.7z"/>
  <path id="svg_16" class="g3_1" d="m251.499988,210.599998l-60,-34.6l0,69.3l60,-34.7l-60,-34.6l0,69.3l60,-34.7z"/>
  <path id="svg_17" class="g2_1" d="m251.499988,141.299998l-60,-34.6l0,69.3l60,-34.7l-60,-34.6l0,69.3l60,-34.7z"/>
  <path id="svg_18" class="g1_1" d="m191.499988,106.699998l60,34.6l0,-69.3l-60,34.7l60,34.6l0,-69.3l-60,34.7z"/>
  <path id="svg_19" class="g2_1" d="m131.499988,71.999998l60,-34.6l0,69.3l-60,-34.7l60,-34.6l0,69.3l-60,-34.7z"/>
  <path id="svg_20" class="g6_1" d="m131.499988,141.299998l60,-34.6l0,69.3l-60,-34.7l60,-34.6l0,69.3l-60,-34.7z"/>
  <path id="svg_21" class="g2_1" d="m131.499988,210.599998l-60,-34.6l0,69.3l60,-34.7l-60,-34.6l0,69.3l60,-34.7z"/>
  <path id="svg_22" class="g3_1" d="m131.499988,279.899998l-60,-34.6l0,69.3l60,-34.7l-60,-34.6l0,69.3l60,-34.7z"/>
  <path id="svg_23" class="g1_1" d="m11.399988,141.299998l60.1,-34.6l0,69.3l-60.1,-34.7l60.1,-34.6l0,69.3l-60.1,-34.7z"/>
  <path id="svg_24" class="g3_1" d="m71.499988,106.699998l-60.1,34.6l0,-69.3l60.1,34.7l-60.1,34.6l0,-69.3l60.1,34.7z"/>
  <path id="svg_25" class="g6_1" d="m11.399988,210.599998l60.1,-34.6l0,69.3l-60.1,-34.7l60.1,-34.6l0,69.3l-60.1,-34.7z"/>
  <path id="svg_26" class="g1_1" d="m11.399988,279.899998l60.1,-34.6l0,69.3l-60.1,-34.7l60.1,-34.6l0,69.3l-60.1,-34.7z"/>
  <path id="svg_27" class="g2_1" d="m71.499988,245.299998l-60.1,34.6l0,-69.3l60.1,34.7l-60.1,34.6l0,-69.3l60.1,34.7z"/>
  <path id="svg_28" class="g1_1" d="m191.499988,175.999998l60,34.6l0,-69.3l-60,34.7l60,34.6l0,-69.3l-60,34.7z"/>
  <path id="svg_29" class="g0_1" d="m338.799988,197.399998l-17.7,0l0,79.5l17.7,0l0,1.8l-37.2,0l0,-1.8l17.7,0l0,-79.5l-17.7,0l0,-1.7l37.2,0l0,1.7z"/>
  <path id="svg_30" class="g0_1" d="m351.799988,278.699998l0,-83.2l1.7,0.1l55.2,79.8l0,-79.8l1.8,0l0,83.1l-1.9,0l-54.9,-79.3l0,79.3l-1.9,0z"/>
  <path id="svg_31" class="g0_1" d="m496.299988,220.499998c-5.7,-14.8 -19.9,-23.7 -35.2,-23.7c-10.9,0 -20.5,4.6 -27.6,12c-6.9,7.4 -11.3,17.3 -11.3,28.5c0,11.1 4.4,21.2 11.3,28.5c7.1,7.5 16.7,12 27.6,12c16.6,0 34.3,-13.2 37.4,-30.8l-36.7,0l0,-1.9l39,0c-0.2,2.9 -0.9,5.6 -2,8.3c-5.5,15.2 -22.9,26.4 -37.7,26.4c-11.3,0 -21.5,-4.9 -28.9,-12.6c-7.2,-7.6 -11.9,-18.2 -11.9,-29.9c0,-11.6 4.7,-22.2 11.9,-29.9c7.4,-7.7 17.6,-12.5 28.9,-12.5c16.3,0 31.8,9.9 37.2,25.6l-2,0z"/>
  <path id="svg_32" class="g0_1" d="m582.499988,208.399998c-7.3,-7.4 -17.5,-12.1 -28.7,-12.1c-11.2,0 -21.3,4.7 -28.6,12.1c-7.3,7.4 -11.9,17.5 -11.9,28.8c0,11.2 4.6,21.3 11.9,28.7c7.3,7.5 17.4,12.1 28.6,12.1c11.2,0 21.4,-4.6 28.7,-12.1c7.3,-7.4 11.8,-17.5 11.8,-28.7c0,-11.3 -4.5,-21.4 -11.8,-28.8m-58.6,-1.4c7.6,-7.8 18.3,-12.6 29.9,-12.6c11.7,0 22.3,4.8 30,12.6c7.6,7.7 12.5,18.4 12.5,30.2c0,11.7 -4.9,22.4 -12.5,30.1c-7.7,7.9 -18.3,12.6 -30,12.6c-11.6,0 -22.3,-4.7 -29.9,-12.6c-7.6,-7.7 -12.5,-18.4 -12.5,-30.1c0,-11.8 4.9,-22.5 12.5,-30.2z"/>
  <path id="svg_33" class="g0_1" d="m508.099988,144.299998l39.2,0l0,12l-51.3,0l0,-83.3l12.1,0l0,71.3z"/>
 </g>
</svg>